<?xml version="1.0" encoding="UTF-8" standalone="no"?>
<svg width="180px" height="180px" viewBox="0 0 180 180" version="1.1" xmlns="http://www.w3.org/2000/svg" xmlns:xlink="http://www.w3.org/1999/xlink" xmlns:sketch="http://www.bohemiancoding.com/sketch/ns">
    <!-- Generator: Sketch 3.2.1 (9971) - http://www.bohemiancoding.com/sketch -->
    <title>180 - iPhone 6 Plus</title>
    <desc>Created with Sketch.</desc>
    <defs></defs>
    <g id="Page-1" stroke="none" stroke-width="1" fill="none" fill-rule="evenodd" sketch:type="MSPage">
        <g id="180---iPhone-6-Plus" sketch:type="MSArtboardGroup">
            <circle id="Oval-1" stroke="#000000" stroke-width="20" sketch:type="MSShapeGroup" cx="90" cy="90" r="75"></circle>
            <path d="M121.176,90.664 C121.176,92.6800101 120.468007,94.3599933 119.052,95.704 C117.635993,97.0480067 115.94401,97.72 113.976,97.72 C113.015995,97.72 112.092004,97.5400018 111.204,97.18 C110.315996,96.8199982 109.536003,96.3280031 108.864,95.704 C108.191997,95.0799969 107.652002,94.3480042 107.244,93.508 C106.835998,92.6679958 106.632,91.744005 106.632,90.736 C106.632,89.7759952 106.823998,88.8640043 107.208,88 C107.592002,87.1359957 108.119997,86.3800032 108.792,85.732 C109.464003,85.0839968 110.243996,84.5680019 111.132,84.184 C112.020004,83.7999981 112.967995,83.608 113.976,83.608 C115.94401,83.608 117.635993,84.2799933 119.052,85.624 C120.468007,86.9680067 121.176,88.6479899 121.176,90.664 L121.176,90.664 Z M97.2,90.664 C97.2,92.6800101 96.4920071,94.3599933 95.076,95.704 C93.6599929,97.0480067 91.9680098,97.72 90,97.72 C89.0399952,97.72 88.1160044,97.5400018 87.228,97.18 C86.3399956,96.8199982 85.5600034,96.3280031 84.888,95.704 C84.2159966,95.0799969 83.676002,94.3480042 83.268,93.508 C82.859998,92.6679958 82.656,91.744005 82.656,90.736 C82.656,89.7759952 82.8479981,88.8640043 83.232,88 C83.6160019,87.1359957 84.1439966,86.3800032 84.816,85.732 C85.4880034,85.0839968 86.2679956,84.5680019 87.156,84.184 C88.0440044,83.7999981 88.991995,83.608 90,83.608 C91.9680098,83.608 93.6599929,84.2799933 95.076,85.624 C96.4920071,86.9680067 97.2,88.6479899 97.2,90.664 L97.2,90.664 Z M73.224,90.664 C73.224,92.6800101 72.528007,94.3599933 71.136,95.704 C69.743993,97.0480067 68.0400101,97.72 66.024,97.72 C65.0639952,97.72 64.1400044,97.5400018 63.252,97.18 C62.3639956,96.8199982 61.5840034,96.3280031 60.912,95.704 C60.2399966,95.0799969 59.7120019,94.3480042 59.328,93.508 C58.9439981,92.6679958 58.752,91.744005 58.752,90.736 C58.752,89.7759952 58.9439981,88.8640043 59.328,88 C59.7120019,87.1359957 60.2399966,86.3800032 60.912,85.732 C61.5840034,85.0839968 62.3519957,84.5680019 63.216,84.184 C64.0800043,83.7999981 65.015995,83.608 66.024,83.608 C67.9920098,83.608 69.6839929,84.2799933 71.1,85.624 C72.5160071,86.9680067 73.224,88.6479899 73.224,90.664 L73.224,90.664 Z" id="…" fill="#000000" sketch:type="MSShapeGroup"></path>
        </g>
    </g>
</svg>